<svg xmlns="http://www.w3.org/2000/svg" width="70" height="70" viewBox="0 0 70 70" style="width: 100%; height: 100%;"><desc>Made with illustrio</desc>
  
<g class="base"><g fill="none" fill-rule="evenodd" stroke="none" class="main-fill">
    
    <path fill="none" d="M37.2036,11.2606667 L20.4927333,0.398533333 C19.7180667,-0.105 18.5486,-0.105466667 17.7734667,0.398533333 L1.06353333,11.2606667 C0.6048,11.5588667 0.3416,12.0045333 0.3416,12.4833333 C0.3416,12.9621333 0.6048,13.4078 1.06353333,13.706 L7.93333333,18.1715333 L7.93333333,23.6833333 C7.93333333,26.4404 13.5678667,27.8833333 19.1333333,27.8833333 C24.6992667,27.8833333 30.3333333,26.4404 30.3333333,23.6833333 L30.3333333,18.1715333 L33.6,16.0477333 L33.6,25.0156667 C33.4245333,25.1533333 33.271,25.3418667 33.152,25.5803333 L31.8621333,28.1596 C31.6148,28.6552 31.6162,29.1722667 31.8672667,29.5778 C32.1178667,29.9833333 32.5794,30.2162 33.1333333,30.2162 L35.4666667,30.2162 C36.0206,30.2162 36.4821333,29.9833333 36.7327333,29.5778 C36.9838,29.1722667 36.9852,28.6547333 36.7378667,28.1596 L35.448,25.5803333 C35.329,25.3418667 35.1754667,25.1533333 35,25.0156667 L35,15.1382 L37.2036,13.706 C37.6623333,13.4078 37.9255333,12.9621333 37.9255333,12.4833333 C37.9255333,12.0045333 37.6623333,11.5588667 37.2036,11.2606667 L37.2036,11.2606667 Z M27.7316667,21.6608 C27.6332,21.8992667 27.3616,22.0117333 27.1222,21.9146667 C25.1715333,21.1106 22.26,20.65 19.1333333,20.65 C16.0080667,20.65 13.0960667,21.1110667 11.1444667,21.9151333 C11.0861333,21.9389333 11.0264,21.9501333 10.9671333,21.9501333 C10.7837333,21.9501333 10.6096667,21.8414 10.5354667,21.6612667 C10.4374667,21.4228 10.5508667,21.1502667 10.7893333,21.0518 C12.8492,20.2034 15.8904667,19.7166667 19.1333333,19.7166667 C22.3771333,19.7166667 25.4188667,20.2034 27.4778,21.0513333 C27.7162667,21.1498 27.8296667,21.4223333 27.7316667,21.6608 L27.7316667,21.6608 Z" transform="translate(15.867 19.6)" stroke="none" class="main-fill"></path>
  </g></g><style>
          .main-fill {fill: #000000;}
          .main-stroke {stroke: #000000;}
          .secondary-fill {fill: #ffffff;}
          .secondary-stroke {stroke: #ffffff;}

          .main-fill--darken {fill: #000000;}
          .main-stroke--darken {stroke: #000000;}
          .secondary-fill--darken {fill: #d9d9d9;}
          .secondary-stroke--darken {stroke: #d9d9d9;}

          .main-fill--darkener {fill: #000000;}
          .main-stroke--darkener {stroke: #000000;}
          .secondary-fill--darkener {fill: #bfbfbf;}
          .secondary-stroke--darkener {stroke: #bfbfbf;}
        </style></svg>