<svg xmlns="http://www.w3.org/2000/svg" width="70" height="70" viewBox="0 0 70 70" style="width: 100%; height: 100%;"><desc>Made with illustrio</desc>
  
<g class="base"><g fill="none" fill-rule="evenodd" stroke="none" class="main-fill">
    
    
  </g><g transform="translate(20 19)" fill="none" stroke="none" class="main-fill">
      <path d="M6.7,12.5 C6.5,12.2 6.1,12.1 5.8,12.3 C5.5,12.4 5.2,12.7 5.2,13.1 L5.2,24.3 C5.2,24.8 5.6,25.2 6.1,25.2 L16.1,25.2 C16.4,25.2 16.7,25 16.9,24.7 C17,24.4 17,24 16.8,23.8 L6.7,12.5 L6.7,12.5 Z M7,23.4 L7,15.3 L14.2,23.4 L7,23.4 L7,23.4 Z" fill="none" stroke="none" class="main-fill"></path>
      <polygon fill="none" points="7 23.4 14.2 23.4 7 15.3" stroke="none" class="main-fill"></polygon>
      <path fill="none" d="M28.2,28.8 L1.6,0.5 C1.3,0.3 1,0.2 0.6,0.3 C0.3,0.4 0.1,0.8 0.1,1.1 L0.1,9.7 L1.8,9.7 C2.3,9.7 2.7,10.1 2.7,10.6 C2.7,11.1 2.3,11.5 1.8,11.5 L0.1,11.5 L0.1,13.2 L1.8,13.2 C2.3,13.2 2.7,13.6 2.7,14.1 C2.7,14.6 2.3,15 1.8,15 L0.1,15 L0.1,16.7 L1.8,16.7 C2.3,16.7 2.7,17.1 2.7,17.6 C2.7,18.1 2.3,18.5 1.8,18.5 L0.1,18.5 L0.1,20 L1.8,20 C2.3,20 2.7,20.4 2.7,20.9 C2.7,21.4 2.3,21.8 1.8,21.8 L0.1,21.8 L0.1,23.5 L1.8,23.5 C2.3,23.5 2.7,23.9 2.7,24.4 C2.7,24.9 2.3,25.3 1.8,25.3 L0.1,25.3 L0.1,29.6 L0.1,30.5 L1,30.5 L5.3,30.5 L5.3,28.8 C5.3,28.3 5.7,27.9 6.2,27.9 C6.7,27.9 7,28.1 7,28.5 L7,30.2 L8.7,30.2 L8.7,28.5 C8.7,28 9.1,27.6 9.6,27.6 C10.1,27.6 10.5,28 10.5,28.5 L10.5,30.2 L12.2,30.2 L12.2,28.5 C12.2,28 12.6,27.6 13.1,27.6 C13.6,27.6 14,28 14,28.5 L14,30.2 L15.7,30.2 L15.7,28.5 C15.7,28 16.1,27.6 16.6,27.6 C17.1,27.6 17.5,28 17.5,28.5 L17.5,30.2 L19,30.2 L19,28.5 C19,28 19.4,27.6 19.9,27.6 C20.4,27.6 20.8,28 20.8,28.5 L20.8,30.2 L27.7,30.2 C28,30.2 28.4,30 28.5,29.7 C28.5,29.4 28.4,29.1 28.2,28.8 L28.2,28.8 Z M16.9,24.6 C16.8,24.9 16.5,25.1 16.1,25.1 L6.1,25.1 C5.6,25.1 5.2,24.7 5.2,24.2 L5.2,13.1 C5.2,12.7 5.4,12.4 5.8,12.3 C6.1,12.2 6.5,12.3 6.7,12.5 L16.7,23.7 C16.9,23.9 17,24.3 16.9,24.6 L16.9,24.6 Z" stroke="none" class="main-fill"></path>
    </g></g><style>
          .main-fill {fill: #000000;}
          .main-stroke {stroke: #000000;}
          .secondary-fill {fill: #ffffff;}
          .secondary-stroke {stroke: #ffffff;}

          .main-fill--darken {fill: #000000;}
          .main-stroke--darken {stroke: #000000;}
          .secondary-fill--darken {fill: #d9d9d9;}
          .secondary-stroke--darken {stroke: #d9d9d9;}

          .main-fill--darkener {fill: #000000;}
          .main-stroke--darkener {stroke: #000000;}
          .secondary-fill--darkener {fill: #bfbfbf;}
          .secondary-stroke--darkener {stroke: #bfbfbf;}
        </style></svg>