<svg xmlns="http://www.w3.org/2000/svg" width="70" height="70" viewBox="0 0 70 70" style="width: 100%; height: 100%;"><desc>Made with illustrio</desc>
  
<g class="content"><rect x="8" y="8" width="54" height="54" rx="10" ry="10" class="main-fill"></rect><g class="base"><g fill="none" fill-rule="evenodd" stroke="none" class="secondary-fill">
    
    <path fill="none" d="M6.92393333,1.22955 C3.3397,2.64973333 0.901425,5.38556667 0.21805,9.07328333 C-0.199208333,11.3430917 -0.0364583333,13.8104167 0.959525,15.9303083 C1.18381667,16.3975 1.448825,16.8530833 1.76493333,17.2680083 C1.92301667,17.4771917 2.08804167,17.6712667 2.26584167,17.845625 C2.58078333,17.7340333 2.89228333,17.59345 3.18745,17.4307 C4.39845,16.7496583 5.29106667,15.6897417 6.33354167,14.8099 C2.863175,10.7863583 6.54039167,5.80399167 11.142775,4.68941667 C15.4219917,3.65505 21.2377083,5.43789167 22.52775,9.84614167 C23.0693167,11.6708083 22.7172167,13.6883833 21.2249333,15.010975 C20.4532417,15.707125 19.4572,16.1557667 18.4158917,16.3463417 C17.8115583,16.4521 17.1827833,16.4764833 16.562175,16.4183833 C16.228625,16.3730583 15.8799667,16.319625 15.5475833,16.2405833 C14.9758,16.105775 14.4655583,16.127825 14.4655583,15.5177167 L14.4655583,10.6922667 L14.4655583,8.281875 C14.4655583,7.79140833 14.5167167,7.88205833 14.1064583,7.832125 C13.7810167,7.7938 13.4591333,7.76358333 13.139525,7.73914167 C11.9994,7.64965833 10.8127833,7.58805833 9.68426667,7.7798 C9.2624,7.85650833 9.23568333,7.78096667 9.23568333,8.24238333 L9.23568333,9.35579167 L9.23568333,12.055575 C9.23568333,14.74375 9.43909167,17.4656417 9.32983333,20.1549833 C9.29378333,20.962725 9.27523333,22.880375 8.37800833,23.2801333 C7.34014167,23.7287167 6.4197,22.7652833 5.46320833,22.5584333 C5.591075,23.910075 4.75078333,26.5831417 6.32205,27.2641833 C7.763175,27.8894583 9.42281667,28.126525 10.9383167,27.6093417 C14.1239,26.52615 15.151325,22.9837417 14.7550083,20.0724417 C19.6665,21.54145 24.975475,19.0834 27.0755333,14.6449333 C28.5713167,11.4825667 27.9437083,7.55661667 25.686675,4.86610833 C21.4655,-0.170916667 12.8988417,-1.13785 6.92393333,1.22955 L6.92393333,1.22955 Z" transform="translate(21 21)" stroke="none" class="secondary-fill"></path>
  </g></g></g><style>
          .main-fill {fill: #000000;}
          .main-stroke {stroke: #000000;}
          .secondary-fill {fill: #ffffff;}
          .secondary-stroke {stroke: #ffffff;}

          .main-fill--darken {fill: #000000;}
          .main-stroke--darken {stroke: #000000;}
          .secondary-fill--darken {fill: #d9d9d9;}
          .secondary-stroke--darken {stroke: #d9d9d9;}

          .main-fill--darkener {fill: #000000;}
          .main-stroke--darkener {stroke: #000000;}
          .secondary-fill--darkener {fill: #bfbfbf;}
          .secondary-stroke--darkener {stroke: #bfbfbf;}
        </style></svg>