<svg xmlns="http://www.w3.org/2000/svg" width="70" height="70" viewBox="0 0 70 70" style="width: 100%; height: 100%;"><desc>Made with illustrio</desc>
  
<g class="content"><rect x="8" y="8" width="54" height="54" rx="10" ry="10" class="main-fill"></rect><g class="base"><g fill="none" fill-rule="evenodd" stroke="none" class="secondary-fill">
    
    <path fill="none" d="M26.775,0 L2.975,0 C1.33875,0 0,1.33875 0,2.975 L0,26.775 C0,28.41125 1.33875,29.75 2.975,29.75 L26.775,29.75 C28.41125,29.75 29.75,28.41125 29.75,26.775 L29.75,2.975 C29.75,1.33875 28.41125,0 26.775,0 L26.775,0 Z M14.875,8.925 C18.1475,8.925 20.825,11.6025 20.825,14.875 C20.825,18.1475 18.1475,20.825 14.875,20.825 C11.6025,20.825 8.925,18.1475 8.925,14.875 C8.925,11.6025 11.6025,8.925 14.875,8.925 L14.875,8.925 Z M3.71875,26.775 C3.2725,26.775 2.975,26.4775 2.975,26.03125 L2.975,13.3875 L6.09875,13.3875 C5.95,13.83375 5.95,14.42875 5.95,14.875 C5.95,19.78375 9.96625,23.8 14.875,23.8 C19.78375,23.8 23.8,19.78375 23.8,14.875 C23.8,14.42875 23.8,13.83375 23.65125,13.3875 L26.775,13.3875 L26.775,26.03125 C26.775,26.4775 26.4775,26.775 26.03125,26.775 L3.71875,26.775 L3.71875,26.775 Z M26.775,6.69375 C26.775,7.14 26.4775,7.4375 26.03125,7.4375 L23.05625,7.4375 C22.61,7.4375 22.3125,7.14 22.3125,6.69375 L22.3125,3.71875 C22.3125,3.2725 22.61,2.975 23.05625,2.975 L26.03125,2.975 C26.4775,2.975 26.775,3.2725 26.775,3.71875 L26.775,6.69375 L26.775,6.69375 Z" transform="translate(20.125 20.125)" stroke="none" class="secondary-fill"></path>
  </g></g></g><style>
          .main-fill {fill: #000000;}
          .main-stroke {stroke: #000000;}
          .secondary-fill {fill: #ffffff;}
          .secondary-stroke {stroke: #ffffff;}

          .main-fill--darken {fill: #000000;}
          .main-stroke--darken {stroke: #000000;}
          .secondary-fill--darken {fill: #d9d9d9;}
          .secondary-stroke--darken {stroke: #d9d9d9;}

          .main-fill--darkener {fill: #000000;}
          .main-stroke--darkener {stroke: #000000;}
          .secondary-fill--darkener {fill: #bfbfbf;}
          .secondary-stroke--darkener {stroke: #bfbfbf;}
        </style></svg>