<?xml version="1.0" standalone="no"?>
<!DOCTYPE svg PUBLIC "-//W3C//DTD SVG 20010904//EN"
 "http://www.w3.org/TR/2001/REC-SVG-20010904/DTD/svg10.dtd">
<svg version="1.0" xmlns="http://www.w3.org/2000/svg"
 width="64.000000pt" height="64.000000pt" viewBox="0 0 64.000000 64.000000"
 preserveAspectRatio="xMidYMid meet">
<metadata>
Created by potrace 1.15, written by Peter Selinger 2001-2017
</metadata>
<g transform="translate(0.000000,64.000000) scale(0.100000,-0.100000)"
fill="#000000" stroke="none">
<path d="M495 536 c-27 -12 -63 -34 -80 -48 -16 -13 -51 -32 -77 -42 -44 -16
-52 -16 -109 -2 -46 12 -70 14 -99 6 -64 -17 -74 -37 -81 -168 -4 -65 -10
-128 -14 -141 -7 -21 -6 -24 14 -18 17 4 25 0 33 -19 16 -34 41 -33 28 2 -13
32 -13 81 -1 89 5 3 12 -5 16 -17 19 -74 30 -98 42 -98 15 0 17 12 4 26 -5 5
-13 30 -19 56 -8 40 -6 52 14 95 13 26 25 51 26 56 2 4 21 -2 43 -13 21 -11
56 -20 77 -20 48 0 52 -10 39 -89 -11 -66 0 -111 26 -111 10 0 11 5 3 19 -12
24 -12 78 0 106 7 15 9 6 8 -32 -1 -32 4 -60 14 -75 19 -28 35 -19 17 10 -16
26 3 147 32 196 11 19 19 41 17 48 -5 21 33 98 49 98 7 0 30 -7 50 -15 44 -19
53 -19 53 0 0 12 -66 125 -73 125 -1 0 -24 -11 -52 -24z"/>
</g>
</svg>
