<?xml version="1.0" encoding="iso-8859-1"?>
<!-- Generator: Adobe Illustrator 16.0.0, SVG Export Plug-In . SVG Version: 6.00 Build 0)  -->
<!DOCTYPE svg PUBLIC "-//W3C//DTD SVG 1.1//EN" "http://www.w3.org/Graphics/SVG/1.1/DTD/svg11.dtd">
<svg version="1.1" id="Capa_1" xmlns="http://www.w3.org/2000/svg" xmlns:xlink="http://www.w3.org/1999/xlink" x="0px" y="0px"
	 width="512px" height="512px" viewBox="0 0 512 512" style="enable-background:new 0 0 512 512;" xml:space="preserve">
<g>
	<path d="M448,80H64L0,144v16v64c0,35.344,28.688,64,64,64v160c-35.313,0-64,28.656-64,64h512c0-35.344-28.625-64-64-64V288
		c35.375,0,64-28.656,64-64v-64v-16L448,80z M384,224c0,17.656-14.375,32-32,32s-32-14.344-32-32v-64h64V224z M192,224
		c0,17.656-14.344,32-32,32c-17.625,0-32-14.344-32-32v-64h64V224z M224,160h64v64c0,17.656-14.344,32-32,32
		c-17.625,0-32-14.344-32-32V160z M32,224v-64h64v64c0,17.656-14.344,32-32,32C46.375,256,32,241.656,32,224z M96,448V279.125
		c6.063-3.531,11.438-7.938,16-13.188C123.75,279.343,140.813,288,160,288c19.25,0,36.281-8.656,48-22.062
		C219.75,279.343,236.813,288,256,288c11.75,0,22.562-3.375,32-8.875V448H96z M416,448h-96V279.125c9.438,5.5,20.312,8.875,32,8.875
		c19.25,0,36.312-8.656,48-22.062c4.625,5.25,9.938,9.655,16,13.188V448z M480,224c0,17.656-14.375,32-32,32s-32-14.344-32-32v-64
		h64V224z M448,64H64V0h384V64z M368,352c0,8.844-7.125,16-16,16c-8.812,0-16-7.156-16-16s7.188-16,16-16
		C360.875,336,368,343.156,368,352z"/>
</g>
<g>
</g>
<g>
</g>
<g>
</g>
<g>
</g>
<g>
</g>
<g>
</g>
<g>
</g>
<g>
</g>
<g>
</g>
<g>
</g>
<g>
</g>
<g>
</g>
<g>
</g>
<g>
</g>
<g>
</g>
</svg>
