<?xml version="1.0" encoding="UTF-8" standalone="no"?>
<!DOCTYPE svg PUBLIC "-//W3C//DTD SVG 1.1//EN" "http://www.w3.org/Graphics/SVG/1.1/DTD/svg11.dtd">
<svg width="100%" height="100%" viewBox="0 0 24 24" version="1.1" xmlns="http://www.w3.org/2000/svg" xmlns:xlink="http://www.w3.org/1999/xlink" xml:space="preserve" xmlns:serif="http://www.serif.com/" style="fill-rule:evenodd;clip-rule:evenodd;stroke-linejoin:round;stroke-miterlimit:1.41421;">
    <g transform="matrix(0.905642,0,0,0.905642,1.1323,1.1323)">
        <path d="M12,0C5.373,0 0,5.373 0,12C0,18.627 5.373,24 12,24C18.627,24 24,18.627 24,12C24,5.373 18.627,0 12,0ZM17.5,16.084L16.097,17.5L12.007,13.404L7.905,17.5L6.5,16.095L10.593,12.003L6.5,7.905L7.905,6.5L11.993,10.589L16.084,6.5L17.5,7.903L13.408,11.99L17.5,16.084Z" style="fill-rule:nonzero;"/>
    </g>
</svg>
